# xmcd CD database file
#
# Track frame offsets:
#	150
#	35330
#	59887
#	83312
#	143902
#	175267
#	195312
#	237732
#
# Disc length: 3412 seconds
#
# Revision: 0
# Processed by: cddbd v1.5.2PL0 Copyright (c) Steve Scherf et al.
# Submitted via: CDex 1.70beta2
#
DISCID=690d5208
DTITLE=Royce Campbell - Elegy to a Friend
DYEAR=2006
DGENRE=Jazz
TTITLE0=Dancing Waterfall
TTITLE1=Apollo
TTITLE2=No Blues is Good Blues
TTITLE3=Trane Track
TTITLE4=Day Into Night
TTITLE5=Manhattan Mambo
TTITLE6=Gratis
TTITLE7=Elegy to a Friend
EXTD=YEAR: 2006
EXTT0=
EXTT1=
EXTT2=
EXTT3=
EXTT4=
EXTT5=
EXTT6=
EXTT7=
PLAYORDER=
